<svg xmlns="http://www.w3.org/2000/svg" width="391pt" height="202pt" viewBox="0 0 391 202"><path d="M0 62.235h12.842V11.524l19.88 44.208c2.346 5.351 5.557 7.244 11.854 7.244 6.298 0 9.385-1.893 11.732-7.244l19.88-44.208v50.711H89.03V11.607c0-4.939-1.976-7.327-6.05-8.561C73.225 0 66.68 2.634 63.716 9.22l-19.51 43.63L25.313 9.22C22.474 2.634 15.807 0 6.052 3.046 1.976 4.28 0 6.668 0 11.607v50.628Z" style="fill:#00618a;fill-rule:nonzero;stroke:none;stroke-width:.87088;stroke-linecap:butt;stroke-linejoin:miter;stroke-dasharray:none" transform="translate(.738 121.593)"/><path d="M.002.136H12.84v27.938c-.12 1.518.487 5.08 7.522 5.191 3.589.056 27.7 0 27.925 0V0h12.868c.059 0-.013 45.364-.012 45.557.071 11.188-13.882 13.618-20.313 13.806H.281v-8.639c.071 0 40.519.008 40.621-.002 8.265-.873 7.289-4.981 7.288-6.364V40.99H20.895C8.196 40.873.109 35.331.009 28.955 0 28.364.283.415.002.136Z" style="fill:#00618a;fill-rule:nonzero;stroke:none;stroke-width:.87088;stroke-linecap:butt;stroke-linejoin:miter;stroke-dasharray:none" transform="translate(100.444 142.416)"/><path d="M0 59.271h36.92c4.322 0 8.521-.905 11.855-2.47 5.556-2.551 8.273-6.008 8.273-10.537V36.88c0-3.705-3.087-7.163-9.138-9.467-3.211-1.236-7.162-1.894-10.99-1.894H21.361c-5.185 0-7.655-1.564-8.272-5.021-.124-.412-.124-.742-.124-1.153v-5.844c0-.33 0-.66.124-1.071.617-2.634 1.976-3.376 6.544-3.787.371 0 .864-.083 1.235-.083h36.674V0H21.485c-5.186 0-7.903.329-10.372 1.069C3.457 3.457.123 7.244.123 13.83v7.491c0 5.763 6.545 10.702 17.534 11.854 1.236.082 2.47.164 3.704.164h13.336c.495 0 .989 0 1.359.083 4.075.33 5.803 1.07 7.039 2.552.74.74.987 1.482.987 2.305v7.491c0 .906-.617 2.059-1.851 3.046-1.112.988-2.964 1.647-5.434 1.812-.494 0-.864.082-1.358.082H0v8.561Z" style="fill:#e48e00;fill-rule:nonzero;stroke:none;stroke-width:.87088;stroke-linecap:butt;stroke-linejoin:miter;stroke-dasharray:none" transform="translate(171.496 124.557)"/><path d="M0 44.371c0 8.808 6.544 13.748 19.757 14.736 1.234.082 2.47.164 3.704.164h33.464V50.71H23.214c-7.532 0-10.372-1.894-10.372-6.421V0H0v44.371Z" style="fill:#e48e00;fill-rule:nonzero;stroke:none;stroke-width:.87088;stroke-linecap:butt;stroke-linejoin:miter;stroke-dasharray:none" transform="translate(308.656 124.557)"/><path d="M0 44.711V14.189C0 6.435 5.445 1.732 16.209.247A24.63 24.63 0 0 1 19.674 0H44.05c1.237 0 2.352.083 3.589.247 10.765 1.485 16.209 6.188 16.209 13.942v30.522c0 6.291-2.312 9.658-7.641 11.852l12.65 11.418H53.946l-10.234-9.238-10.303.653H19.674c-2.351 0-4.825-.331-7.548-1.073C3.96 56.096 0 51.806 0 44.711Zm13.861-.742c0 .413.123.825.247 1.32.742 3.547 4.083 5.527 9.156 5.527h11.667l-10.717-9.675h14.911l9.347 8.438c1.722-.918 2.856-2.322 3.252-4.125.123-.412.123-.825.123-1.237V14.932c0-.33 0-.743-.123-1.156-.743-3.299-4.084-5.196-9.033-5.196H23.264c-5.691 0-9.403 2.475-9.403 6.352v29.037Z" style="fill:#e48e00;fill-rule:nonzero;stroke:none;stroke-width:.87088;stroke-linecap:butt;stroke-linejoin:miter;stroke-dasharray:none" transform="translate(236.74 124.666)"/><path d="M135.289 114.997c-7.894-.214-13.924.52-19.079 2.694-1.465.618-3.801.634-4.04 2.47.805.844.93 2.104 1.57 3.142 1.231 1.992 3.309 4.661 5.163 6.061 2.026 1.529 4.114 3.165 6.286 4.489 3.863 2.356 8.176 3.701 11.896 6.061 2.192 1.391 4.37 3.143 6.509 4.713 1.057.776 1.768 1.983 3.142 2.469v-.224c-.722-.919-.908-2.183-1.571-3.143l-2.918-2.918c-2.853-3.787-6.475-7.113-10.325-9.876-3.07-2.204-9.942-5.181-11.223-8.754l-.225-.225c2.177-.245 4.726-1.033 6.735-1.571 3.375-.905 6.391-.671 9.876-1.571 1.571-.449 3.142-.899 4.714-1.347v-.898c-1.762-1.808-3.018-4.2-4.939-5.836-5.026-4.28-10.512-8.556-16.161-12.122-3.133-1.977-7.005-3.262-10.325-4.938-1.117-.564-3.079-.857-3.817-1.796-1.744-2.224-2.694-5.042-4.039-7.632-2.818-5.426-5.585-11.351-8.081-17.06-1.703-3.892-2.815-7.73-4.938-11.223C79.307 39.205 68.336 29.09 51.341 19.149c-3.616-2.114-7.97-2.949-12.571-4.04l-7.407-.449c-1.507-.63-3.075-2.473-4.489-3.367C21.244 7.736 6.803 0 2.633 10.171 0 16.59 6.568 22.856 8.917 26.108c1.649 2.283 3.76 4.841 4.938 7.408.775 1.686.909 3.378 1.572 5.163 1.632 4.396 3.051 9.18 5.162 13.243 1.067 2.056 2.243 4.222 3.592 6.06.827 1.128 2.244 1.625 2.468 3.368-1.386 1.94-1.465 4.95-2.244 7.407-3.508 11.061-2.185 24.81 2.918 32.997 1.566 2.513 5.254 7.903 10.325 5.836 4.436-1.807 3.445-7.406 4.714-12.346.287-1.12.111-1.943.673-2.693v.224l4.041 8.08c2.99 4.816 8.297 9.849 12.794 13.245 2.332 1.761 4.168 4.806 7.183 5.836v-.225h-.225c-.584-.911-1.498-1.288-2.244-2.02-1.757-1.722-3.71-3.863-5.163-5.836-4.09-5.553-7.705-11.631-10.998-17.958-1.573-3.02-2.94-6.353-4.266-9.427-.511-1.186-.505-2.978-1.57-3.592-1.452 2.253-3.591 4.074-4.714 6.734-1.796 4.252-2.028 9.438-2.693 14.815-.394.141-.219.044-.45.224-3.126-.754-4.225-3.972-5.386-6.733-2.939-6.982-3.485-18.226-.899-26.263.669-2.079 3.693-8.629 2.469-10.55-.584-1.916-2.512-3.025-3.591-4.49-1.335-1.81-2.668-4.194-3.592-6.285-2.405-5.444-3.528-11.556-6.06-17.058-1.21-2.631-3.257-5.293-4.938-7.632-1.861-2.591-3.945-4.5-5.387-7.633-.513-1.113-1.21-2.896-.449-4.04.242-.773.583-1.095 1.347-1.347 1.302-1.004 4.928.334 6.284.898 3.6 1.495 6.604 2.919 9.653 4.938 1.464.97 2.944 2.848 4.713 3.367h2.02c3.16.727 6.7.226 9.652 1.122 5.218 1.586 9.894 4.053 14.141 6.735 12.938 8.169 23.516 19.798 30.752 33.67 1.164 2.233 1.668 4.365 2.693 6.734 2.069 4.777 4.675 9.693 6.733 14.365 2.054 4.661 4.056 9.365 6.959 13.244 1.527 2.04 7.422 3.133 10.101 4.265 1.878.794 4.955 1.621 6.734 2.693 3.398 2.05 6.69 4.49 9.877 6.735 1.593 1.122 6.489 3.583 6.733 5.611Z" style="fill:#00618a;fill-rule:nonzero;stroke:none;stroke-width:.87088;stroke-linecap:butt;stroke-linejoin:miter;stroke-dasharray:none" transform="translate(241.59 -4.643)"/><path d="M4.041.03C2.395 0 1.231.21 0 .48v.224h.225c.785 1.613 2.171 2.652 3.142 4.041a6815.3 6815.3 0 0 0 2.245 4.713l.224-.224c1.39-.98 2.027-2.546 2.02-4.938-.557-.586-.639-1.321-1.122-2.02C6.092 1.342 4.85.813 4.041.03Z" style="fill:#00618a;fill-rule:evenodd;stroke:none;stroke-width:.87088;stroke-linecap:butt;stroke-linejoin:miter;stroke-dasharray:none" transform="translate(272.504 24.803)"/><path d="M0 9.463c0 5.654 4.467 9.464 9.464 9.464 4.997 0 9.464-3.81 9.464-9.464C18.928 3.81 14.461 0 9.464 0 4.467 0 0 3.81 0 9.463Zm16.808 0c0 4.29-3.28 7.496-7.344 7.496-4.113 0-7.344-3.206-7.344-7.496 0-4.29 3.231-7.496 7.344-7.496 4.064 0 7.344 3.206 7.344 7.496Zm-4.794 5.401h2.119L11.03 10.12c1.665-.177 2.926-.985 2.926-2.953 0-2.196-1.387-3.104-4.062-3.104H5.679v10.801h1.817v-4.669h1.691l2.827 4.669ZM7.496 8.681V5.577H9.59c1.086 0 2.398.202 2.398 1.464 0 1.513-1.186 1.64-2.549 1.64H7.496Z" style="fill:#e48e00;fill-rule:evenodd;stroke:none;stroke-width:1;stroke-linecap:butt;stroke-linejoin:miter;stroke-dasharray:none" transform="translate(371.609 165.56)"/></svg>